# xmcd
# 
# Track frame offsets:
#     150
#     15661
#     31273
#     45769
#     59817
#     75503
#     88509
#     102367
#     115287
#     129654
#     145565
#     159567
#     175002
#     187975
#     202861
#     215663
#     228814
#     243039
#     257185
#     269675
#     284044
#     298262
#     309263
#     319987
#     332819
# 
# Disc length: 4569
# 
# Revision: 3
# Processed by: cddbd v1.5.2PL0 Copyright (c) Steve Scherf et al.
# Submitted via: fre:ac v1.0.17
# 
DISCID=6511d719
DTITLE=Jelly Roll MORTON - Triomphes du Jazz 2-2
DYEAR=1926
DGENRE=Jazz
TTITLE0=Smoke house blues
TTITLE1=Sidewalk blues
TTITLE2=Dead man blues
TTITLE3=Steamboat stomp
TTITLE4=Someday sweetheart
TTITLE5=Grandpa's spells
TTITLE6=Original Jelly Roll blues
TTITLE7=Cannonball blues
TTITLE8=Hyena stomp
TTITLE9=Billy goat stomp
TTITLE10=Wild man blues
TTITLE11=Jungle blues
TTITLE12=Kansas City stomps
TTITLE13=Wolverine blues
TTITLE14=Mr. Jelly Lord
TTITLE15=Smilin' the blues away
TTITLE16=Turtle twist
TTITLE17=Oh ! Didn't he ramble
TTITLE18=High society
TTITLE19=I thought I heard Buddy Bolden say
TTITLE20=Winin' boy blues
TTITLE21=Climax rag
TTITLE22=Don't you leave me here
TTITLE23=West end blues
TTITLE24=Ballin' the jack
EXTD=YEAR: 1926
EXTT0=
EXTT1=
EXTT2=
EXTT3=
EXTT4=
EXTT5=
EXTT6=
EXTT7=
EXTT8=
EXTT9=
EXTT10=
EXTT11=
EXTT12=
EXTT13=
EXTT14=
EXTT15=
EXTT16=
EXTT17=
EXTT18=
EXTT19=
EXTT20=
EXTT21=
EXTT22=
EXTT23=
EXTT24=
PLAYORDER=
